<?xml version="1.0" encoding="UTF-8" standalone="no"?>
<!DOCTYPE svg PUBLIC "-//W3C//DTD SVG 1.1//EN"
 "http://www.w3.org/Graphics/SVG/1.1/DTD/svg11.dtd">
<!-- Generated by graphviz version 2.43.0 (0)
 -->
<!-- Title: dependency&#45;cruiser output Pages: 1 -->
<svg width="466pt" height="577pt"
 viewBox="0.00 0.00 465.56 577.00" xmlns="http://www.w3.org/2000/svg" xmlns:xlink="http://www.w3.org/1999/xlink">
<g id="graph0" class="graph" transform="scale(1 1) rotate(0) translate(4 573)">
<title>dependency&#45;cruiser output</title>
<polygon fill="white" stroke="transparent" points="-4,4 -4,-573 461.56,-573 461.56,4 -4,4"/>
<g id="clust1" class="cluster">
<title>cluster_src</title>
<path fill="#ffffff" stroke="black" stroke-width="2" d="M74,-8C74,-8 437.56,-8 437.56,-8 443.56,-8 449.56,-14 449.56,-20 449.56,-20 449.56,-549 449.56,-549 449.56,-555 443.56,-561 437.56,-561 437.56,-561 74,-561 74,-561 68,-561 62,-555 62,-549 62,-549 62,-20 62,-20 62,-14 68,-8 74,-8"/>
<text text-anchor="middle" x="255.78" y="-549.8" font-family="Helvetica,sans-Serif" font-weight="bold" font-size="9.00">src</text>
</g>
<g id="clust2" class="cluster">
<title>cluster_src/circlesAndSpinning</title>
<path fill="#ffffff" stroke="black" stroke-width="2" d="M167.76,-16C167.76,-16 429.56,-16 429.56,-16 435.56,-16 441.56,-22 441.56,-28 441.56,-28 441.56,-349 441.56,-349 441.56,-355 435.56,-361 429.56,-361 429.56,-361 167.76,-361 167.76,-361 161.76,-361 155.76,-355 155.76,-349 155.76,-349 155.76,-28 155.76,-28 155.76,-22 161.76,-16 167.76,-16"/>
<text text-anchor="middle" x="298.66" y="-349.8" font-family="Helvetica,sans-Serif" font-weight="bold" font-size="9.00">circlesAndSpinning</text>
</g>
<g id="clust3" class="cluster">
<title>cluster_src/circlesAndSpinning/components</title>
<path fill="#ffffff" stroke="black" stroke-width="2" d="M175.76,-169C175.76,-169 310.54,-169 310.54,-169 316.54,-169 322.54,-175 322.54,-181 322.54,-181 322.54,-208 322.54,-208 322.54,-214 316.54,-220 310.54,-220 310.54,-220 175.76,-220 175.76,-220 169.76,-220 163.76,-214 163.76,-208 163.76,-208 163.76,-181 163.76,-181 163.76,-175 169.76,-169 175.76,-169"/>
<text text-anchor="middle" x="243.15" y="-208.8" font-family="Helvetica,sans-Serif" font-weight="bold" font-size="9.00">components</text>
</g>
<g id="clust4" class="cluster">
<title>cluster_src/circlesAndSpinning/svg</title>
<path fill="#ffffff" stroke="black" stroke-width="2" d="M342.54,-24C342.54,-24 421.56,-24 421.56,-24 427.56,-24 433.56,-30 433.56,-36 433.56,-36 433.56,-324 433.56,-324 433.56,-330 427.56,-336 421.56,-336 421.56,-336 342.54,-336 342.54,-336 336.54,-336 330.54,-330 330.54,-324 330.54,-324 330.54,-36 330.54,-36 330.54,-30 336.54,-24 342.54,-24"/>
<text text-anchor="middle" x="382.05" y="-324.8" font-family="Helvetica,sans-Serif" font-weight="bold" font-size="9.00">svg</text>
</g>
<g id="clust5" class="cluster">
<title>cluster_src/routes</title>
<path fill="#ffffff" stroke="black" stroke-width="2" d="M82,-412C82,-412 128,-412 128,-412 134,-412 140,-418 140,-424 140,-424 140,-451 140,-451 140,-457 134,-463 128,-463 128,-463 82,-463 82,-463 76,-463 70,-457 70,-451 70,-451 70,-424 70,-424 70,-418 76,-412 82,-412"/>
<text text-anchor="middle" x="105" y="-451.8" font-family="Helvetica,sans-Serif" font-weight="bold" font-size="9.00">routes</text>
</g>
<g id="clust6" class="cluster">
<title>cluster_src/screen</title>
<path fill="#ffffff" stroke="black" stroke-width="2" d="M160,-369C160,-369 237.53,-369 237.53,-369 243.53,-369 249.53,-375 249.53,-381 249.53,-381 249.53,-524 249.53,-524 249.53,-530 243.53,-536 237.53,-536 237.53,-536 160,-536 160,-536 154,-536 148,-530 148,-524 148,-524 148,-381 148,-381 148,-375 154,-369 160,-369"/>
<text text-anchor="middle" x="198.76" y="-524.8" font-family="Helvetica,sans-Serif" font-weight="bold" font-size="9.00">screen</text>
</g>
<!-- App.js -->
<g id="node1" class="node">
<title>App.js</title>
<g id="a_node1"><a xlink:href="App.js" xlink:title="App.js">
<path fill="#ffffcc" stroke="black" d="M48.33,-437.5C48.33,-437.5 5.67,-437.5 5.67,-437.5 2.83,-437.5 0,-434.67 0,-431.83 0,-431.83 0,-426.17 0,-426.17 0,-423.33 2.83,-420.5 5.67,-420.5 5.67,-420.5 48.33,-420.5 48.33,-420.5 51.17,-420.5 54,-423.33 54,-426.17 54,-426.17 54,-431.83 54,-431.83 54,-434.67 51.17,-437.5 48.33,-437.5"/>
<text text-anchor="middle" x="27" y="-426.3" font-family="Helvetica,sans-Serif" font-size="9.00">App.js</text>
</a>
</g>
</g>
<!-- src/routes/Routes.js -->
<g id="node2" class="node">
<title>src/routes/Routes.js</title>
<g id="a_node2"><a xlink:href="src/routes/Routes.js" xlink:title="Routes.js">
<path fill="#ffffcc" stroke="black" d="M126.33,-437.5C126.33,-437.5 83.67,-437.5 83.67,-437.5 80.83,-437.5 78,-434.67 78,-431.83 78,-431.83 78,-426.17 78,-426.17 78,-423.33 80.83,-420.5 83.67,-420.5 83.67,-420.5 126.33,-420.5 126.33,-420.5 129.17,-420.5 132,-423.33 132,-426.17 132,-426.17 132,-431.83 132,-431.83 132,-434.67 129.17,-437.5 126.33,-437.5"/>
<text text-anchor="middle" x="105" y="-426.3" font-family="Helvetica,sans-Serif" font-size="9.00">Routes.js</text>
</a>
</g>
</g>
<!-- App.js&#45;&gt;src/routes/Routes.js -->
<g id="edge1" class="edge">
<title>App.js&#45;&gt;src/routes/Routes.js</title>
<path fill="none" stroke="#000000" stroke-width="2" stroke-opacity="0.200000" d="M54.15,-429C59.77,-429 65.76,-429 71.58,-429"/>
<polygon fill="#000000" fill-opacity="0.200000" stroke="#000000" stroke-width="2" stroke-opacity="0.200000" points="71.8,-431.1 77.8,-429 71.8,-426.9 71.8,-431.1"/>
</g>
<!-- src/circlesAndSpinning/components/TabBar.js -->
<g id="node3" class="node">
<title>src/circlesAndSpinning/components/TabBar.js</title>
<g id="a_node3"><a xlink:href="src/circlesAndSpinning/components/TabBar.js" xlink:title="TabBar.js">
<path fill="#ffffcc" stroke="black" d="M220.1,-194.5C220.1,-194.5 177.43,-194.5 177.43,-194.5 174.6,-194.5 171.76,-191.67 171.76,-188.83 171.76,-188.83 171.76,-183.17 171.76,-183.17 171.76,-180.33 174.6,-177.5 177.43,-177.5 177.43,-177.5 220.1,-177.5 220.1,-177.5 222.93,-177.5 225.76,-180.33 225.76,-183.17 225.76,-183.17 225.76,-188.83 225.76,-188.83 225.76,-191.67 222.93,-194.5 220.1,-194.5"/>
<text text-anchor="middle" x="198.76" y="-183.3" font-family="Helvetica,sans-Serif" font-size="9.00">TabBar.js</text>
</a>
</g>
</g>
<!-- src/routes/Routes.js&#45;&gt;src/circlesAndSpinning/components/TabBar.js -->
<g id="edge13" class="edge">
<title>src/routes/Routes.js&#45;&gt;src/circlesAndSpinning/components/TabBar.js</title>
<path fill="none" stroke="#000000" stroke-width="2" stroke-opacity="0.200000" d="M109.27,-420.35C122.9,-384.26 175.33,-245.42 192.37,-200.27"/>
<polygon fill="#000000" fill-opacity="0.200000" stroke="#000000" stroke-width="2" stroke-opacity="0.200000" points="194.38,-200.9 194.54,-194.54 190.45,-199.42 194.38,-200.9"/>
</g>
<!-- src/screen/CameraScreen.js -->
<g id="node15" class="node">
<title>src/screen/CameraScreen.js</title>
<g id="a_node15"><a xlink:href="src/screen/CameraScreen.js" xlink:title="CameraScreen.js">
<path fill="#ffffcc" stroke="black" d="M235.62,-510.5C235.62,-510.5 161.9,-510.5 161.9,-510.5 159.07,-510.5 156.24,-507.67 156.24,-504.83 156.24,-504.83 156.24,-499.17 156.24,-499.17 156.24,-496.33 159.07,-493.5 161.9,-493.5 161.9,-493.5 235.62,-493.5 235.62,-493.5 238.46,-493.5 241.29,-496.33 241.29,-499.17 241.29,-499.17 241.29,-504.83 241.29,-504.83 241.29,-507.67 238.46,-510.5 235.62,-510.5"/>
<text text-anchor="middle" x="198.76" y="-499.3" font-family="Helvetica,sans-Serif" font-size="9.00">CameraScreen.js</text>
</a>
</g>
</g>
<!-- src/routes/Routes.js&#45;&gt;src/screen/CameraScreen.js -->
<g id="edge14" class="edge">
<title>src/routes/Routes.js&#45;&gt;src/screen/CameraScreen.js</title>
<path fill="none" stroke="#000000" stroke-width="2" stroke-opacity="0.200000" d="M109.81,-437.64C115.95,-450.57 129.29,-474.83 148,-488 149.32,-488.93 150.69,-489.79 152.11,-490.6"/>
<polygon fill="#000000" fill-opacity="0.200000" stroke="#000000" stroke-width="2" stroke-opacity="0.200000" points="151.48,-492.63 157.79,-493.44 153.36,-488.88 151.48,-492.63"/>
</g>
<!-- src/screen/FeedScreen.js -->
<g id="node16" class="node">
<title>src/screen/FeedScreen.js</title>
<g id="a_node16"><a xlink:href="src/screen/FeedScreen.js" xlink:title="FeedScreen.js">
<path fill="#ffffcc" stroke="black" d="M230.13,-481.5C230.13,-481.5 167.4,-481.5 167.4,-481.5 164.57,-481.5 161.73,-478.67 161.73,-475.83 161.73,-475.83 161.73,-470.17 161.73,-470.17 161.73,-467.33 164.57,-464.5 167.4,-464.5 167.4,-464.5 230.13,-464.5 230.13,-464.5 232.96,-464.5 235.79,-467.33 235.79,-470.17 235.79,-470.17 235.79,-475.83 235.79,-475.83 235.79,-478.67 232.96,-481.5 230.13,-481.5"/>
<text text-anchor="middle" x="198.76" y="-470.3" font-family="Helvetica,sans-Serif" font-size="9.00">FeedScreen.js</text>
</a>
</g>
</g>
<!-- src/routes/Routes.js&#45;&gt;src/screen/FeedScreen.js -->
<g id="edge15" class="edge">
<title>src/routes/Routes.js&#45;&gt;src/screen/FeedScreen.js</title>
<path fill="none" stroke="#000000" stroke-width="2" stroke-opacity="0.200000" d="M116.07,-437.72C124.2,-444.38 136.2,-453.34 148,-459 150.55,-460.22 153.22,-461.35 155.95,-462.4"/>
<polygon fill="#000000" fill-opacity="0.200000" stroke="#000000" stroke-width="2" stroke-opacity="0.200000" points="155.25,-464.38 161.61,-464.43 156.67,-460.43 155.25,-464.38"/>
</g>
<!-- src/screen/LikesScreen.js -->
<g id="node17" class="node">
<title>src/screen/LikesScreen.js</title>
<g id="a_node17"><a xlink:href="src/screen/LikesScreen.js" xlink:title="LikesScreen.js">
<path fill="#ffffcc" stroke="black" d="M230.12,-452.5C230.12,-452.5 167.4,-452.5 167.4,-452.5 164.57,-452.5 161.74,-449.67 161.74,-446.83 161.74,-446.83 161.74,-441.17 161.74,-441.17 161.74,-438.33 164.57,-435.5 167.4,-435.5 167.4,-435.5 230.12,-435.5 230.12,-435.5 232.96,-435.5 235.79,-438.33 235.79,-441.17 235.79,-441.17 235.79,-446.83 235.79,-446.83 235.79,-449.67 232.96,-452.5 230.12,-452.5"/>
<text text-anchor="middle" x="198.76" y="-441.3" font-family="Helvetica,sans-Serif" font-size="9.00">LikesScreen.js</text>
</a>
</g>
</g>
<!-- src/routes/Routes.js&#45;&gt;src/screen/LikesScreen.js -->
<g id="edge16" class="edge">
<title>src/routes/Routes.js&#45;&gt;src/screen/LikesScreen.js</title>
<path fill="none" stroke="#000000" stroke-width="2" stroke-opacity="0.200000" d="M132.05,-433.26C139.4,-434.46 147.58,-435.8 155.62,-437.11"/>
<polygon fill="#000000" fill-opacity="0.200000" stroke="#000000" stroke-width="2" stroke-opacity="0.200000" points="155.45,-439.21 161.71,-438.11 156.13,-435.07 155.45,-439.21"/>
</g>
<!-- src/screen/ProfilScreen.js -->
<g id="node18" class="node">
<title>src/screen/ProfilScreen.js</title>
<g id="a_node18"><a xlink:href="src/screen/ProfilScreen.js" xlink:title="ProfilScreen.js">
<path fill="#ffffcc" stroke="black" d="M230.12,-423.5C230.12,-423.5 167.41,-423.5 167.41,-423.5 164.58,-423.5 161.74,-420.67 161.74,-417.83 161.74,-417.83 161.74,-412.17 161.74,-412.17 161.74,-409.33 164.58,-406.5 167.41,-406.5 167.41,-406.5 230.12,-406.5 230.12,-406.5 232.95,-406.5 235.78,-409.33 235.78,-412.17 235.78,-412.17 235.78,-417.83 235.78,-417.83 235.78,-420.67 232.95,-423.5 230.12,-423.5"/>
<text text-anchor="middle" x="198.76" y="-412.3" font-family="Helvetica,sans-Serif" font-size="9.00">ProfilScreen.js</text>
</a>
</g>
</g>
<!-- src/routes/Routes.js&#45;&gt;src/screen/ProfilScreen.js -->
<g id="edge17" class="edge">
<title>src/routes/Routes.js&#45;&gt;src/screen/ProfilScreen.js</title>
<path fill="none" stroke="#000000" stroke-width="2" stroke-opacity="0.200000" d="M132.05,-425.03C139.4,-423.9 147.58,-422.66 155.62,-421.43"/>
<polygon fill="#000000" fill-opacity="0.200000" stroke="#000000" stroke-width="2" stroke-opacity="0.200000" points="156.1,-423.48 161.71,-420.5 155.47,-419.33 156.1,-423.48"/>
</g>
<!-- src/screen/SearchScreen.js -->
<g id="node19" class="node">
<title>src/screen/SearchScreen.js</title>
<g id="a_node19"><a xlink:href="src/screen/SearchScreen.js" xlink:title="SearchScreen.js">
<path fill="#ffffcc" stroke="black" d="M234.13,-394.5C234.13,-394.5 163.4,-394.5 163.4,-394.5 160.56,-394.5 157.73,-391.67 157.73,-388.83 157.73,-388.83 157.73,-383.17 157.73,-383.17 157.73,-380.33 160.56,-377.5 163.4,-377.5 163.4,-377.5 234.13,-377.5 234.13,-377.5 236.96,-377.5 239.8,-380.33 239.8,-383.17 239.8,-383.17 239.8,-388.83 239.8,-388.83 239.8,-391.67 236.96,-394.5 234.13,-394.5"/>
<text text-anchor="middle" x="198.76" y="-383.3" font-family="Helvetica,sans-Serif" font-size="9.00">SearchScreen.js</text>
</a>
</g>
</g>
<!-- src/routes/Routes.js&#45;&gt;src/screen/SearchScreen.js -->
<g id="edge18" class="edge">
<title>src/routes/Routes.js&#45;&gt;src/screen/SearchScreen.js</title>
<path fill="none" stroke="#000000" stroke-width="2" stroke-opacity="0.200000" d="M116.87,-420.44C125.05,-414.34 136.74,-406.3 148,-401 151.43,-399.38 155.07,-397.9 158.77,-396.53"/>
<polygon fill="#000000" fill-opacity="0.200000" stroke="#000000" stroke-width="2" stroke-opacity="0.200000" points="159.62,-398.46 164.59,-394.5 158.23,-394.5 159.62,-398.46"/>
</g>
<!-- src/circlesAndSpinning/components/TabItem.js -->
<g id="node4" class="node">
<title>src/circlesAndSpinning/components/TabItem.js</title>
<g id="a_node4"><a xlink:href="src/circlesAndSpinning/components/TabItem.js" xlink:title="TabItem.js">
<path fill="#ffffcc" stroke="black" d="M308.88,-194.5C308.88,-194.5 263.19,-194.5 263.19,-194.5 260.35,-194.5 257.52,-191.67 257.52,-188.83 257.52,-188.83 257.52,-183.17 257.52,-183.17 257.52,-180.33 260.35,-177.5 263.19,-177.5 263.19,-177.5 308.88,-177.5 308.88,-177.5 311.71,-177.5 314.55,-180.33 314.55,-183.17 314.55,-183.17 314.55,-188.83 314.55,-188.83 314.55,-191.67 311.71,-194.5 308.88,-194.5"/>
<text text-anchor="middle" x="286.03" y="-183.3" font-family="Helvetica,sans-Serif" font-size="9.00">TabItem.js</text>
</a>
</g>
</g>
<!-- src/circlesAndSpinning/components/TabBar.js&#45;&gt;src/circlesAndSpinning/components/TabItem.js -->
<g id="edge2" class="edge">
<title>src/circlesAndSpinning/components/TabBar.js&#45;&gt;src/circlesAndSpinning/components/TabItem.js</title>
<path fill="none" stroke="#000000" stroke-width="2" stroke-opacity="0.200000" d="M225.81,-186C233.77,-186 242.65,-186 251.06,-186"/>
<polygon fill="#000000" fill-opacity="0.200000" stroke="#000000" stroke-width="2" stroke-opacity="0.200000" points="251.37,-188.1 257.37,-186 251.37,-183.9 251.37,-188.1"/>
</g>
<!-- src/circlesAndSpinning/svg/cameraActive.js -->
<g id="node5" class="node">
<title>src/circlesAndSpinning/svg/cameraActive.js</title>
<g id="a_node5"><a xlink:href="src/circlesAndSpinning/svg/cameraActive.js" xlink:title="cameraActive.js">
<path fill="#ffffcc" stroke="black" d="M415.91,-310.5C415.91,-310.5 348.2,-310.5 348.2,-310.5 345.37,-310.5 342.53,-307.67 342.53,-304.83 342.53,-304.83 342.53,-299.17 342.53,-299.17 342.53,-296.33 345.37,-293.5 348.2,-293.5 348.2,-293.5 415.91,-293.5 415.91,-293.5 418.74,-293.5 421.57,-296.33 421.57,-299.17 421.57,-299.17 421.57,-304.83 421.57,-304.83 421.57,-307.67 418.74,-310.5 415.91,-310.5"/>
<text text-anchor="middle" x="382.05" y="-299.3" font-family="Helvetica,sans-Serif" font-size="9.00">cameraActive.js</text>
</a>
</g>
</g>
<!-- src/circlesAndSpinning/components/TabItem.js&#45;&gt;src/circlesAndSpinning/svg/cameraActive.js -->
<g id="edge3" class="edge">
<title>src/circlesAndSpinning/components/TabItem.js&#45;&gt;src/circlesAndSpinning/svg/cameraActive.js</title>
<path fill="none" stroke="#000000" stroke-width="2" stroke-opacity="0.200000" d="M288.16,-194.57C291.21,-214.17 301.42,-262.51 330.54,-288 332.5,-289.72 334.66,-291.23 336.95,-292.55"/>
<polygon fill="#000000" fill-opacity="0.200000" stroke="#000000" stroke-width="2" stroke-opacity="0.200000" points="336.17,-294.51 342.47,-295.33 338.05,-290.76 336.17,-294.51"/>
</g>
<!-- src/circlesAndSpinning/svg/cameraInActive.js -->
<g id="node6" class="node">
<title>src/circlesAndSpinning/svg/cameraInActive.js</title>
<g id="a_node6"><a xlink:href="src/circlesAndSpinning/svg/cameraInActive.js" xlink:title="cameraInActive.js">
<path fill="#ffffcc" stroke="black" d="M419.91,-281.5C419.91,-281.5 344.19,-281.5 344.19,-281.5 341.36,-281.5 338.53,-278.67 338.53,-275.83 338.53,-275.83 338.53,-270.17 338.53,-270.17 338.53,-267.33 341.36,-264.5 344.19,-264.5 344.19,-264.5 419.91,-264.5 419.91,-264.5 422.74,-264.5 425.58,-267.33 425.58,-270.17 425.58,-270.17 425.58,-275.83 425.58,-275.83 425.58,-278.67 422.74,-281.5 419.91,-281.5"/>
<text text-anchor="middle" x="382.05" y="-270.3" font-family="Helvetica,sans-Serif" font-size="9.00">cameraInActive.js</text>
</a>
</g>
</g>
<!-- src/circlesAndSpinning/components/TabItem.js&#45;&gt;src/circlesAndSpinning/svg/cameraInActive.js -->
<g id="edge4" class="edge">
<title>src/circlesAndSpinning/components/TabItem.js&#45;&gt;src/circlesAndSpinning/svg/cameraInActive.js</title>
<path fill="none" stroke="#000000" stroke-width="2" stroke-opacity="0.200000" d="M289.77,-194.66C295.08,-210.02 308.26,-241.99 330.54,-259 331.66,-259.85 332.82,-260.65 334.03,-261.4"/>
<polygon fill="#000000" fill-opacity="0.200000" stroke="#000000" stroke-width="2" stroke-opacity="0.200000" points="333.25,-263.37 339.53,-264.4 335.26,-259.69 333.25,-263.37"/>
</g>
<!-- src/circlesAndSpinning/svg/feedActive.js -->
<g id="node7" class="node">
<title>src/circlesAndSpinning/svg/feedActive.js</title>
<g id="a_node7"><a xlink:href="src/circlesAndSpinning/svg/feedActive.js" xlink:title="feedActive.js">
<path fill="#ffffcc" stroke="black" d="M409.91,-252.5C409.91,-252.5 354.19,-252.5 354.19,-252.5 351.36,-252.5 348.53,-249.67 348.53,-246.83 348.53,-246.83 348.53,-241.17 348.53,-241.17 348.53,-238.33 351.36,-235.5 354.19,-235.5 354.19,-235.5 409.91,-235.5 409.91,-235.5 412.74,-235.5 415.58,-238.33 415.58,-241.17 415.58,-241.17 415.58,-246.83 415.58,-246.83 415.58,-249.67 412.74,-252.5 409.91,-252.5"/>
<text text-anchor="middle" x="382.05" y="-241.3" font-family="Helvetica,sans-Serif" font-size="9.00">feedActive.js</text>
</a>
</g>
</g>
<!-- src/circlesAndSpinning/components/TabItem.js&#45;&gt;src/circlesAndSpinning/svg/feedActive.js -->
<g id="edge5" class="edge">
<title>src/circlesAndSpinning/components/TabItem.js&#45;&gt;src/circlesAndSpinning/svg/feedActive.js</title>
<path fill="none" stroke="#000000" stroke-width="2" stroke-opacity="0.200000" d="M293.4,-194.79C301.1,-204.77 314.97,-220.87 330.54,-230 334.32,-232.22 338.46,-234.09 342.7,-235.68"/>
<polygon fill="#000000" fill-opacity="0.200000" stroke="#000000" stroke-width="2" stroke-opacity="0.200000" points="342.15,-237.72 348.51,-237.67 343.51,-233.74 342.15,-237.72"/>
</g>
<!-- src/circlesAndSpinning/svg/feedInActive.js -->
<g id="node8" class="node">
<title>src/circlesAndSpinning/svg/feedInActive.js</title>
<g id="a_node8"><a xlink:href="src/circlesAndSpinning/svg/feedInActive.js" xlink:title="feedInActive.js">
<path fill="#ffffcc" stroke="black" d="M413.42,-223.5C413.42,-223.5 350.69,-223.5 350.69,-223.5 347.85,-223.5 345.02,-220.67 345.02,-217.83 345.02,-217.83 345.02,-212.17 345.02,-212.17 345.02,-209.33 347.85,-206.5 350.69,-206.5 350.69,-206.5 413.42,-206.5 413.42,-206.5 416.25,-206.5 419.08,-209.33 419.08,-212.17 419.08,-212.17 419.08,-217.83 419.08,-217.83 419.08,-220.67 416.25,-223.5 413.42,-223.5"/>
<text text-anchor="middle" x="382.05" y="-212.3" font-family="Helvetica,sans-Serif" font-size="9.00">feedInActive.js</text>
</a>
</g>
</g>
<!-- src/circlesAndSpinning/components/TabItem.js&#45;&gt;src/circlesAndSpinning/svg/feedInActive.js -->
<g id="edge6" class="edge">
<title>src/circlesAndSpinning/components/TabItem.js&#45;&gt;src/circlesAndSpinning/svg/feedInActive.js</title>
<path fill="none" stroke="#000000" stroke-width="2" stroke-opacity="0.200000" d="M310.88,-194.52C317.24,-196.71 324.13,-199.01 330.54,-201 334.66,-202.28 338.99,-203.57 343.31,-204.81"/>
<polygon fill="#000000" fill-opacity="0.200000" stroke="#000000" stroke-width="2" stroke-opacity="0.200000" points="342.82,-206.86 349.17,-206.48 343.98,-202.82 342.82,-206.86"/>
</g>
<!-- src/circlesAndSpinning/svg/likesActive.js -->
<g id="node9" class="node">
<title>src/circlesAndSpinning/svg/likesActive.js</title>
<g id="a_node9"><a xlink:href="src/circlesAndSpinning/svg/likesActive.js" xlink:title="likesActive.js">
<path fill="#ffffcc" stroke="black" d="M409.9,-194.5C409.9,-194.5 354.2,-194.5 354.2,-194.5 351.37,-194.5 348.54,-191.67 348.54,-188.83 348.54,-188.83 348.54,-183.17 348.54,-183.17 348.54,-180.33 351.37,-177.5 354.2,-177.5 354.2,-177.5 409.9,-177.5 409.9,-177.5 412.73,-177.5 415.57,-180.33 415.57,-183.17 415.57,-183.17 415.57,-188.83 415.57,-188.83 415.57,-191.67 412.73,-194.5 409.9,-194.5"/>
<text text-anchor="middle" x="382.05" y="-183.3" font-family="Helvetica,sans-Serif" font-size="9.00">likesActive.js</text>
</a>
</g>
</g>
<!-- src/circlesAndSpinning/components/TabItem.js&#45;&gt;src/circlesAndSpinning/svg/likesActive.js -->
<g id="edge7" class="edge">
<title>src/circlesAndSpinning/components/TabItem.js&#45;&gt;src/circlesAndSpinning/svg/likesActive.js</title>
<path fill="none" stroke="#000000" stroke-width="2" stroke-opacity="0.200000" d="M314.73,-186C323.27,-186 332.84,-186 341.99,-186"/>
<polygon fill="#000000" fill-opacity="0.200000" stroke="#000000" stroke-width="2" stroke-opacity="0.200000" points="342.24,-188.1 348.24,-186 342.24,-183.9 342.24,-188.1"/>
</g>
<!-- src/circlesAndSpinning/svg/likesInActive.js -->
<g id="node10" class="node">
<title>src/circlesAndSpinning/svg/likesInActive.js</title>
<g id="a_node10"><a xlink:href="src/circlesAndSpinning/svg/likesInActive.js" xlink:title="likesInActive.js">
<path fill="#ffffcc" stroke="black" d="M413.9,-165.5C413.9,-165.5 350.2,-165.5 350.2,-165.5 347.37,-165.5 344.53,-162.67 344.53,-159.83 344.53,-159.83 344.53,-154.17 344.53,-154.17 344.53,-151.33 347.37,-148.5 350.2,-148.5 350.2,-148.5 413.9,-148.5 413.9,-148.5 416.74,-148.5 419.57,-151.33 419.57,-154.17 419.57,-154.17 419.57,-159.83 419.57,-159.83 419.57,-162.67 416.74,-165.5 413.9,-165.5"/>
<text text-anchor="middle" x="382.05" y="-154.3" font-family="Helvetica,sans-Serif" font-size="9.00">likesInActive.js</text>
</a>
</g>
</g>
<!-- src/circlesAndSpinning/components/TabItem.js&#45;&gt;src/circlesAndSpinning/svg/likesInActive.js -->
<g id="edge8" class="edge">
<title>src/circlesAndSpinning/components/TabItem.js&#45;&gt;src/circlesAndSpinning/svg/likesInActive.js</title>
<path fill="none" stroke="#000000" stroke-width="2" stroke-opacity="0.200000" d="M313.23,-177.46C318.93,-175.64 324.93,-173.74 330.54,-172 335.5,-170.47 340.75,-168.87 345.91,-167.32"/>
<polygon fill="#000000" fill-opacity="0.200000" stroke="#000000" stroke-width="2" stroke-opacity="0.200000" points="346.76,-169.26 351.9,-165.53 345.55,-165.24 346.76,-169.26"/>
</g>
<!-- src/circlesAndSpinning/svg/profilActive.js -->
<g id="node11" class="node">
<title>src/circlesAndSpinning/svg/profilActive.js</title>
<g id="a_node11"><a xlink:href="src/circlesAndSpinning/svg/profilActive.js" xlink:title="profilActive.js">
<path fill="#ffffcc" stroke="black" d="M410.9,-136.5C410.9,-136.5 353.2,-136.5 353.2,-136.5 350.37,-136.5 347.54,-133.67 347.54,-130.83 347.54,-130.83 347.54,-125.17 347.54,-125.17 347.54,-122.33 350.37,-119.5 353.2,-119.5 353.2,-119.5 410.9,-119.5 410.9,-119.5 413.73,-119.5 416.57,-122.33 416.57,-125.17 416.57,-125.17 416.57,-130.83 416.57,-130.83 416.57,-133.67 413.73,-136.5 410.9,-136.5"/>
<text text-anchor="middle" x="382.05" y="-125.3" font-family="Helvetica,sans-Serif" font-size="9.00">profilActive.js</text>
</a>
</g>
</g>
<!-- src/circlesAndSpinning/components/TabItem.js&#45;&gt;src/circlesAndSpinning/svg/profilActive.js -->
<g id="edge9" class="edge">
<title>src/circlesAndSpinning/components/TabItem.js&#45;&gt;src/circlesAndSpinning/svg/profilActive.js</title>
<path fill="none" stroke="#000000" stroke-width="2" stroke-opacity="0.200000" d="M293.48,-177.47C301.25,-167.76 315.18,-152.08 330.54,-143 334.03,-140.93 337.83,-139.14 341.72,-137.57"/>
<polygon fill="#000000" fill-opacity="0.200000" stroke="#000000" stroke-width="2" stroke-opacity="0.200000" points="342.57,-139.5 347.47,-135.44 341.11,-135.56 342.57,-139.5"/>
</g>
<!-- src/circlesAndSpinning/svg/profilInActive.js -->
<g id="node12" class="node">
<title>src/circlesAndSpinning/svg/profilInActive.js</title>
<g id="a_node12"><a xlink:href="src/circlesAndSpinning/svg/profilInActive.js" xlink:title="profilInActive.js">
<path fill="#ffffcc" stroke="black" d="M414.41,-107.5C414.41,-107.5 349.7,-107.5 349.7,-107.5 346.86,-107.5 344.03,-104.67 344.03,-101.83 344.03,-101.83 344.03,-96.17 344.03,-96.17 344.03,-93.33 346.86,-90.5 349.7,-90.5 349.7,-90.5 414.41,-90.5 414.41,-90.5 417.24,-90.5 420.08,-93.33 420.08,-96.17 420.08,-96.17 420.08,-101.83 420.08,-101.83 420.08,-104.67 417.24,-107.5 414.41,-107.5"/>
<text text-anchor="middle" x="382.05" y="-96.3" font-family="Helvetica,sans-Serif" font-size="9.00">profilInActive.js</text>
</a>
</g>
</g>
<!-- src/circlesAndSpinning/components/TabItem.js&#45;&gt;src/circlesAndSpinning/svg/profilInActive.js -->
<g id="edge10" class="edge">
<title>src/circlesAndSpinning/components/TabItem.js&#45;&gt;src/circlesAndSpinning/svg/profilInActive.js</title>
<path fill="none" stroke="#000000" stroke-width="2" stroke-opacity="0.200000" d="M289.84,-177.49C295.25,-162.41 308.58,-130.97 330.54,-114 332.9,-112.17 335.49,-110.57 338.19,-109.16"/>
<polygon fill="#000000" fill-opacity="0.200000" stroke="#000000" stroke-width="2" stroke-opacity="0.200000" points="339.33,-110.95 343.9,-106.53 337.57,-107.14 339.33,-110.95"/>
</g>
<!-- src/circlesAndSpinning/svg/searchActive.js -->
<g id="node13" class="node">
<title>src/circlesAndSpinning/svg/searchActive.js</title>
<g id="a_node13"><a xlink:href="src/circlesAndSpinning/svg/searchActive.js" xlink:title="searchActive.js">
<path fill="#ffffcc" stroke="black" d="M414.41,-78.5C414.41,-78.5 349.7,-78.5 349.7,-78.5 346.86,-78.5 344.03,-75.67 344.03,-72.83 344.03,-72.83 344.03,-67.17 344.03,-67.17 344.03,-64.33 346.86,-61.5 349.7,-61.5 349.7,-61.5 414.41,-61.5 414.41,-61.5 417.24,-61.5 420.08,-64.33 420.08,-67.17 420.08,-67.17 420.08,-72.83 420.08,-72.83 420.08,-75.67 417.24,-78.5 414.41,-78.5"/>
<text text-anchor="middle" x="382.05" y="-67.3" font-family="Helvetica,sans-Serif" font-size="9.00">searchActive.js</text>
</a>
</g>
</g>
<!-- src/circlesAndSpinning/components/TabItem.js&#45;&gt;src/circlesAndSpinning/svg/searchActive.js -->
<g id="edge11" class="edge">
<title>src/circlesAndSpinning/components/TabItem.js&#45;&gt;src/circlesAndSpinning/svg/searchActive.js</title>
<path fill="none" stroke="#000000" stroke-width="2" stroke-opacity="0.200000" d="M288.27,-177.26C291.5,-157.74 301.99,-110.36 330.54,-85 332.85,-82.94 335.44,-81.17 338.18,-79.64"/>
<polygon fill="#000000" fill-opacity="0.200000" stroke="#000000" stroke-width="2" stroke-opacity="0.200000" points="339.52,-81.33 344,-76.82 337.69,-77.54 339.52,-81.33"/>
</g>
<!-- src/circlesAndSpinning/svg/searchInActive.js -->
<g id="node14" class="node">
<title>src/circlesAndSpinning/svg/searchInActive.js</title>
<g id="a_node14"><a xlink:href="src/circlesAndSpinning/svg/searchInActive.js" xlink:title="searchInActive.js">
<path fill="#ffffcc" stroke="black" d="M418.41,-49.5C418.41,-49.5 345.69,-49.5 345.69,-49.5 342.86,-49.5 340.02,-46.67 340.02,-43.83 340.02,-43.83 340.02,-38.17 340.02,-38.17 340.02,-35.33 342.86,-32.5 345.69,-32.5 345.69,-32.5 418.41,-32.5 418.41,-32.5 421.25,-32.5 424.08,-35.33 424.08,-38.17 424.08,-38.17 424.08,-43.83 424.08,-43.83 424.08,-46.67 421.25,-49.5 418.41,-49.5"/>
<text text-anchor="middle" x="382.05" y="-38.3" font-family="Helvetica,sans-Serif" font-size="9.00">searchInActive.js</text>
</a>
</g>
</g>
<!-- src/circlesAndSpinning/components/TabItem.js&#45;&gt;src/circlesAndSpinning/svg/searchInActive.js -->
<g id="edge12" class="edge">
<title>src/circlesAndSpinning/components/TabItem.js&#45;&gt;src/circlesAndSpinning/svg/searchInActive.js</title>
<path fill="none" stroke="#000000" stroke-width="2" stroke-opacity="0.200000" d="M287.31,-177.3C288.53,-154.1 295.11,-90.23 330.54,-56 331.84,-54.75 333.23,-53.6 334.7,-52.55"/>
<polygon fill="#000000" fill-opacity="0.200000" stroke="#000000" stroke-width="2" stroke-opacity="0.200000" points="335.95,-54.25 339.97,-49.32 333.75,-50.67 335.95,-54.25"/>
</g>
</g>
</svg>
